<svg width="248" height="343" viewBox="0 0 248 343" fill="none" xmlns="http://www.w3.org/2000/svg">
<path d="M169.941 34.6277C169.941 54.2897 154.442 69.9651 134.496 69.9651C115.227 69.9651 99.3465 54.3106 99.3465 34.6486C99.3465 15.6545 115.227 2.08485e-05 134.496 2.08485e-05C154.442 -0.0208518 169.941 15.6336 169.941 34.6277ZM224.063 141.621C224.05 141.646 224.023 141.663 223.995 141.663H132.992C121.389 141.621 102.988 140.473 92.3378 144.835C77.2406 151.807 78.3628 167.753 94.2435 175.935C104.026 181.195 117.069 182.406 133.628 186.205C168.417 193.51 191.645 203.654 205.323 231.624C220.696 263.893 212.861 293.741 193.106 313.862C172.355 335.006 140.594 343 111.458 343C83.1906 343 54.2878 336.07 28.667 325.363C21.5793 322.387 14.73 319.085 8.24584 315.558C0.694709 311.451 -1.54929 301.87 2.81476 294.464L16.3723 271.458C20.9162 263.748 30.9096 261.272 38.9475 265.208C43.0339 267.209 47.4372 269.208 52.0857 271.156C72.4976 279.714 131.912 295.431 148.725 274.913C154.548 265.896 151.901 257.714 144.066 251.432C136.02 245.024 120.605 242.749 105.042 239.701C65.3195 232.187 31.6525 215.406 23.2252 180.903C17.6352 158.089 20.0491 136.069 35.0192 117.868C54.2243 92.1527 87.743 81.7581 123.612 81.7581C159.541 81.7084 195.389 81.7376 231.136 81.7518C243.487 81.7567 251.18 95.1566 244.955 105.823L224.063 141.621Z" fill="url(#paint0_linear_2805_8601)"/>
<defs>
<linearGradient id="paint0_linear_2805_8601" x1="259" y1="-23.5577" x2="-150.404" y2="395.368" gradientUnits="userSpaceOnUse">
<stop stop-color="#002FE6"/>
<stop offset="1" stop-color="#002FE6" stop-opacity="0"/>
</linearGradient>
</defs>
</svg>
