<svg width="32" height="32" viewBox="0 0 32 32" fill="none" xmlns="http://www.w3.org/2000/svg">
<rect width="32" height="32" rx="16" fill="#002ACC"/>
<path d="M19.5312 9H13.4681C12.2834 9.00139 11.1476 9.47268 10.3099 10.3105C9.47229 11.1483 9.00119 12.2841 9 13.4688L9 19.5319C9.00139 20.7166 9.47268 21.8524 10.3105 22.6901C11.1483 23.5277 12.2841 23.9988 13.4688 24H19.5319C20.7166 23.9986 21.8524 23.5273 22.6901 22.6895C23.5277 21.8517 23.9988 20.7159 24 19.5312V13.4681C23.9986 12.2834 23.5273 11.1476 22.6895 10.3099C21.8517 9.47229 20.7159 9.00119 19.5312 9V9ZM22.4914 19.5312C22.4914 19.9199 22.4148 20.3048 22.266 20.664C22.1173 21.0231 21.8992 21.3495 21.6243 21.6243C21.3495 21.8992 21.0231 22.1173 20.664 22.266C20.3048 22.4148 19.9199 22.4914 19.5312 22.4914H13.4681C12.6831 22.4912 11.9304 22.1792 11.3754 21.6241C10.8204 21.069 10.5086 20.3161 10.5086 19.5312V13.4681C10.5088 12.6831 10.8208 11.9304 11.3759 11.3754C11.931 10.8204 12.6839 10.5086 13.4688 10.5086H19.5319C20.3169 10.5088 21.0696 10.8208 21.6246 11.3759C22.1796 11.931 22.4914 12.6839 22.4914 13.4688V19.5319V19.5312Z" fill="white"/>
<path d="M16.4994 12.6211C15.4712 12.6227 14.4855 13.0319 13.7585 13.759C13.0315 14.4862 12.6225 15.4719 12.6211 16.5001C12.6223 17.5286 13.0313 18.5147 13.7585 19.242C14.4857 19.9693 15.4716 20.3785 16.5001 20.3799C17.5287 20.3787 18.5149 19.9696 19.2422 19.2422C19.9696 18.5149 20.3787 17.5288 20.3799 16.5001C20.3783 15.4716 19.9689 14.4858 19.2414 13.7587C18.514 13.0317 17.5279 12.6228 16.4994 12.6218V12.6211ZM16.4994 18.8713C15.8707 18.8713 15.2678 18.6215 14.8233 18.177C14.3787 17.7325 14.129 17.1296 14.129 16.5009C14.129 15.8722 14.3787 15.2693 14.8233 14.8248C15.2678 14.3802 15.8707 14.1305 16.4994 14.1305C17.128 14.1305 17.731 14.3802 18.1755 14.8248C18.62 15.2693 18.8698 15.8722 18.8698 16.5009C18.8698 17.1296 18.62 17.7325 18.1755 18.177C17.731 18.6215 17.128 18.8713 16.4994 18.8713V18.8713Z" fill="white"/>
<path d="M20.3864 13.5795C20.8997 13.5795 21.3158 13.1634 21.3158 12.6501C21.3158 12.1368 20.8997 11.7207 20.3864 11.7207C19.8731 11.7207 19.457 12.1368 19.457 12.6501C19.457 13.1634 19.8731 13.5795 20.3864 13.5795Z" fill="white"/>
</svg>
