<svg width="32" height="32" viewBox="0 0 32 32" fill="none" xmlns="http://www.w3.org/2000/svg">
<rect width="32" height="32" rx="16" fill="#002ACC"/>
<path d="M14.2 18.5714L18.871 16L14.2 13.4286V18.5714ZM24.604 11.86C24.721 12.2629 24.802 12.8029 24.856 13.4886C24.919 14.1743 24.946 14.7657 24.946 15.28L25 16C25 17.8771 24.856 19.2571 24.604 20.14C24.379 20.9114 23.857 21.4086 23.047 21.6229C22.624 21.7343 21.85 21.8114 20.662 21.8629C19.492 21.9229 18.421 21.9486 17.431 21.9486L16 22C12.229 22 9.88 21.8629 8.953 21.6229C8.143 21.4086 7.621 20.9114 7.396 20.14C7.279 19.7371 7.198 19.1971 7.144 18.5114C7.081 17.8257 7.054 17.2343 7.054 16.72L7 16C7 14.1229 7.144 12.7429 7.396 11.86C7.621 11.0886 8.143 10.5914 8.953 10.3771C9.376 10.2657 10.15 10.1886 11.338 10.1371C12.508 10.0771 13.579 10.0514 14.569 10.0514L16 10C19.771 10 22.12 10.1371 23.047 10.3771C23.857 10.5914 24.379 11.0886 24.604 11.86Z" fill="white"/>
</svg>
