<svg width="983" height="1267" viewBox="0 0 983 1267" fill="none" xmlns="http://www.w3.org/2000/svg">
<g clip-path="url(#clip0_15825_34562)">
<g filter="url(#filter0_f_15825_34562)">
<ellipse cx="491.698" cy="633.61" rx="151.182" ry="293.39" fill="#36A7FB"/>
</g>
<path d="M499.321 300.324C499.321 325.492 479.624 345.557 454.276 345.557C429.789 345.557 409.607 325.519 409.607 300.351C409.607 276.038 429.789 256 454.276 256C479.624 255.973 499.321 276.011 499.321 300.324ZM568.1 437.279C568.084 437.311 568.05 437.332 568.014 437.332H452.365C437.619 437.279 414.235 435.809 400.7 441.393C381.514 450.317 382.94 470.729 403.122 481.202C415.554 487.935 432.13 489.485 453.172 494.347C497.384 503.698 526.903 516.683 544.286 552.485C563.822 593.79 553.866 631.996 528.76 657.752C502.389 684.817 462.026 695.049 424.999 695.049C389.076 695.049 352.345 686.179 319.785 672.473C311.262 668.869 303.01 664.89 295.166 660.648C284.775 655.03 281.698 641.868 287.663 631.672L303.241 605.046C309.509 594.334 323.387 590.892 334.555 596.308C339.262 598.59 344.28 600.864 349.546 603.088C375.487 614.042 450.993 634.16 472.359 607.897C479.758 596.355 476.395 585.882 466.439 577.84C456.213 569.637 436.624 566.725 416.845 562.824C366.364 553.206 323.579 531.725 312.87 487.561C305.766 458.359 308.833 430.172 327.858 406.874C352.264 373.958 394.861 360.653 440.445 360.653C492.156 360.581 543.737 360.638 595.148 360.65C602.853 360.652 607.664 369 603.801 375.666L568.1 437.279Z" fill="url(#paint0_linear_15825_34562)"/>
</g>
<defs>
<filter id="filter0_f_15825_34562" x="0.515625" y="0.219727" width="982.363" height="1266.78" filterUnits="userSpaceOnUse" color-interpolation-filters="sRGB">
<feFlood flood-opacity="0" result="BackgroundImageFix"/>
<feBlend mode="normal" in="SourceGraphic" in2="BackgroundImageFix" result="shape"/>
<feGaussianBlur stdDeviation="170" result="effect1_foregroundBlur_15825_34562"/>
</filter>
<linearGradient id="paint0_linear_15825_34562" x1="867.183" y1="176.971" x2="160.321" y2="640.487" gradientUnits="userSpaceOnUse">
<stop stop-color="#002FE6"/>
<stop offset="1" stop-color="#002FE6" stop-opacity="0"/>
</linearGradient>
<clipPath id="clip0_15825_34562">
<rect width="983" height="1267" fill="white"/>
</clipPath>
</defs>
</svg>
