<svg width="87" height="44" viewBox="0 0 87 44" fill="none" xmlns="http://www.w3.org/2000/svg">
<path d="M21.6488 4.49795C21.6488 7.01202 19.7303 9.01633 17.2614 9.01633C14.8763 9.01633 12.9106 7.01468 12.9106 4.50062C12.9106 2.07196 14.8763 0.0703152 17.2614 0.0703152C19.7303 0.0676463 21.6488 2.06929 21.6488 4.49795ZM86.9967 27.2046C86.9967 26.057 86.8762 24.9361 86.656 23.8552C85.1227 16.2409 78.5049 10.5162 70.5792 10.5162C61.4583 10.5162 54.1563 18.0691 54.1563 27.2633C54.1563 36.4015 61.5212 43.9277 70.5765 43.9277C73.6954 43.9277 76.8275 43.0149 79.4432 41.2721V43.9277H86.9915V27.2099L86.9967 27.2046ZM70.5792 18.1839C75.4803 18.1839 79.4537 22.2325 79.4537 27.2233C79.4537 32.214 75.4803 36.2627 70.5765 36.2627C65.6754 36.2627 61.6968 32.2167 61.6968 27.2233C61.6968 22.2325 65.6728 18.1839 70.5739 18.1839H70.5792ZM45.9318 10.5162C49.6405 10.5162 53.0608 11.7706 55.8128 13.8843L51.2628 19.996C49.7794 18.8591 47.9342 18.1812 45.9318 18.1812C41.0307 18.1812 37.0547 22.2325 37.0547 27.2233C37.0547 32.214 41.0254 36.2627 45.9292 36.2627C47.9264 36.2627 49.7715 35.5901 51.255 34.4559L55.7971 40.5729C53.0529 42.6813 49.6378 43.9357 45.9318 43.9357C36.8686 43.9357 29.5248 36.4522 29.5248 27.2233C29.5248 17.997 36.8686 10.5162 45.9318 10.5162ZM28.3453 18.1839H17.0753C15.639 18.1785 13.3614 18.0317 12.0431 18.5895C10.1744 19.4809 10.3133 21.5199 12.279 22.5661C13.4898 23.2387 15.1043 23.3935 17.1539 23.8792C21.4601 24.8133 24.3353 26.1104 26.0284 29.6866C27.9312 33.8127 26.9615 37.6292 24.5161 40.2019C21.9476 42.9055 18.0162 43.9277 14.4098 43.9277C10.9108 43.9277 7.33326 43.0416 4.16192 41.6725C2.66012 41.0213 1.24482 40.2473 -0.00537109 39.4173L3.66394 32.9853C4.56031 33.5538 5.72925 34.165 7.06068 34.7415C9.58727 35.8357 16.9416 37.8453 19.0226 35.2218C19.7434 34.0689 19.4158 33.0227 18.446 32.2194C17.4501 31.4 15.542 31.1091 13.6157 30.7195C8.69877 29.7587 4.53148 27.6129 3.48834 23.2013C2.79641 20.2842 3.0952 17.4686 4.9482 15.1414C7.3254 11.8533 11.4743 10.5242 15.9142 10.5242C21.5178 10.5162 27.1056 10.5242 32.6725 10.5242L28.348 18.1785L28.3453 18.1839Z" fill="white"/>
</svg>
