<svg width="190" height="178" viewBox="0 0 190 178" fill="none" xmlns="http://www.w3.org/2000/svg">
<path d="M95.066 126.5C127.866 126.5 154.466 100.1 154.466 67.4995C154.466 34.8995 127.866 8.49951 95.066 8.49951C62.266 8.49951 35.666 34.8995 35.666 67.4995C35.666 100.1 62.266 126.5 95.066 126.5Z" fill="url(#paint0_linear_8215_22978)"/>
<path d="M152.948 39.2996C155.212 39.2996 157.048 37.464 157.048 35.1996C157.048 32.9352 155.212 31.0996 152.948 31.0996C150.683 31.0996 148.848 32.9352 148.848 35.1996C148.848 37.464 150.683 39.2996 152.948 39.2996Z" fill="#BDE8FF"/>
<path d="M148.851 25.9994C150.397 25.9994 151.651 24.7458 151.651 23.1994C151.651 21.653 150.397 20.3994 148.851 20.3994C147.304 20.3994 146.051 21.653 146.051 23.1994C146.051 24.7458 147.304 25.9994 148.851 25.9994Z" fill="#BDE8FF"/>
<path d="M35.4484 35.1996C36.9948 35.1996 38.2484 33.946 38.2484 32.3996C38.2484 30.8532 36.9948 29.5996 35.4484 29.5996C33.902 29.5996 32.6484 30.8532 32.6484 32.3996C32.6484 33.946 33.902 35.1996 35.4484 35.1996Z" fill="#BDE8FF"/>
<path d="M29.1492 96.7994C32.0211 96.7994 34.3492 94.4713 34.3492 91.5994C34.3492 88.7275 32.0211 86.3994 29.1492 86.3994C26.2773 86.3994 23.9492 88.7275 23.9492 91.5994C23.9492 94.4713 26.2773 96.7994 29.1492 96.7994Z" fill="#BDE8FF"/>
<g filter="url(#filter0_d_8215_22978)">
<path d="M149.792 52.8925V107.033C149.792 107.256 149.792 107.368 149.792 107.591C149.68 110.717 148.229 113.396 145.996 115.294C144.099 116.968 141.531 118.085 138.74 118.085H51.334C49.4363 118.085 47.6502 117.638 46.0874 116.745C45.4176 116.41 44.7478 115.964 44.1897 115.405C42.9617 114.401 41.8454 112.95 41.2873 111.387C40.8407 110.27 40.5059 109.043 40.5059 107.815V52.8925C40.5059 52.8925 45.0827 48.9855 51.6689 43.6272C58.4783 37.9341 67.4087 30.5665 75.2229 24.0919C79.6881 20.2965 79.2415 20.743 86.1626 14.9383C91.4092 10.4731 99.1117 10.4731 104.358 14.9383C105.698 16.0546 107.149 17.3941 108.489 18.5104C111.391 20.8547 114.517 23.5338 117.866 26.3245C124.898 32.1293 132.601 38.6039 138.629 43.6272C144.768 48.6506 149.234 52.446 149.792 52.8925Z" fill="url(#paint1_linear_8215_22978)"/>
</g>
<path d="M138.628 43.5155V62.9391L119.54 74.437L113.847 77.8976L101.791 85.1535L96.0974 88.6141L93.6415 90.0652L91.2973 88.6141L85.939 85.1535L74.4411 77.8976L69.0829 74.437L51.4453 63.3856V43.6271C58.2548 37.9339 67.1852 30.5663 74.9993 24.0918L117.754 26.2128C124.898 32.1292 132.6 38.4921 138.628 43.5155Z" fill="#002ACC"/>
<path d="M134.834 28.1106V62.2695L117.42 72.6511L112.285 75.7767L101.234 82.2513L96.0985 85.3769L93.8659 86.6048L91.745 85.3769L86.8332 82.2513L76.34 75.7767L71.4283 72.6511L55.3535 62.6043V28.1106C55.3535 24.5384 58.2559 21.6361 61.9397 21.6361H128.248C131.82 21.5244 134.834 24.5384 134.834 28.1106Z" fill="white"/>
<path opacity="0.5" d="M40.9531 52.6694L93.4193 56.13L149.011 52.6694L146.89 62.6045C146.89 62.6045 94.6472 89.8423 94.9821 89.8423C95.317 89.8423 41.0648 57.5812 41.0648 57.5812L40.9531 52.6694Z" fill="url(#paint2_linear_8215_22978)"/>
<path d="M149.792 52.8926V107.591C149.68 110.717 148.229 113.396 145.996 115.294C144.099 116.968 141.531 118.085 138.74 118.085H51.334C49.4363 118.085 47.6502 117.638 46.0874 116.745C45.4176 116.41 44.7478 115.964 44.1897 115.405C42.9617 114.401 41.8454 112.95 41.2873 111.387C40.8407 110.27 40.5059 109.043 40.5059 107.815V107.703V52.8926L89.3999 83.4793L93.6418 86.1584L95.093 85.2653L96.4326 84.4839L149.792 52.8926Z" fill="#738DFF"/>
<g filter="url(#filter1_d_8215_22978)">
<path d="M146.108 115.294C144.21 116.968 141.643 118.085 138.852 118.085H51.334C49.4363 118.085 47.6502 117.638 46.0874 116.745C45.4176 116.41 44.7478 115.964 44.1897 115.405C42.9617 114.401 41.8454 112.95 41.2873 111.387C40.8407 110.27 40.5059 109.043 40.5059 107.815V107.703V52.8926L46.199 56.3531L95.093 85.2653L96.4326 86.0467L96.5442 86.1584L140.415 112.057L146.108 115.294Z" fill="url(#paint3_linear_8215_22978)"/>
</g>
<path d="M96.4324 84.3724V88.1678L46.0872 116.745C45.4174 116.41 44.7476 115.964 44.1895 115.406C42.9616 114.401 41.8453 112.95 41.2871 111.387L90.2928 82.363L94.5347 85.0422L95.0929 85.2654L96.4324 84.3724Z" fill="url(#paint4_linear_8215_22978)"/>
<path d="M40.5059 52.8926L95.093 85.2653" stroke="white" stroke-miterlimit="10"/>
<g filter="url(#filter2_d_8215_22978)">
<path d="M149.792 52.8926V107.591C149.68 110.717 148.229 113.396 145.996 115.294C144.098 116.968 141.531 118.085 138.74 118.085H51.3338C49.4361 118.085 47.65 117.638 46.0872 116.745C45.4174 116.41 44.7476 115.964 44.1895 115.405L49.771 112.057L93.6416 86.1584L95.0928 85.2653L96.4324 84.4839L143.987 56.2415L149.792 52.8926Z" fill="url(#paint5_linear_8215_22978)"/>
</g>
<path d="M149.792 52.8926L96.4324 84.3723L95.0928 85.2653L93.6416 86.1584L44.1895 115.294" stroke="white" stroke-miterlimit="10"/>
<path d="M136.619 91.1817H107.595C106.925 91.1817 106.367 90.6235 106.367 89.9538C106.367 89.284 106.925 88.7258 107.595 88.7258H136.619C137.289 88.7258 137.847 89.284 137.847 89.9538C137.959 90.6235 137.4 91.1817 136.619 91.1817Z" fill="#BDE8FF"/>
<path d="M136.619 99.554H107.595C106.925 99.554 106.367 98.9959 106.367 98.3261C106.367 97.6563 106.925 97.0981 107.595 97.0981H136.619C137.289 97.0981 137.847 97.6563 137.847 98.3261C137.959 98.9959 137.4 99.554 136.619 99.554Z" fill="#BDE8FF"/>
<path d="M142.648 116.968L146.221 115.182C146.109 115.294 146.109 115.294 145.997 115.405C145.997 115.405 145.997 115.405 145.886 115.405L142.648 116.968Z" fill="#526DFF"/>
<path d="M92.3007 64.3149C91.4355 64.3149 90.6212 63.9969 89.9595 63.308L78.7121 51.5959C77.4397 50.2711 77.4397 48.0452 78.7121 46.7204C79.9844 45.3955 82.1219 45.3955 83.3943 46.7204L92.3007 55.9946L113.269 34.2134C114.541 32.8885 116.679 32.8885 117.951 34.2134C119.223 35.5383 119.223 37.7641 117.951 39.089L94.6418 63.308C94.031 63.9969 93.1658 64.3149 92.3007 64.3149Z" fill="url(#paint6_linear_8215_22978)"/>
<defs>
<filter id="filter0_d_8215_22978" x="18.5059" y="0.589355" width="153.287" height="150.495" filterUnits="userSpaceOnUse" color-interpolation-filters="sRGB">
<feFlood flood-opacity="0" result="BackgroundImageFix"/>
<feColorMatrix in="SourceAlpha" type="matrix" values="0 0 0 0 0 0 0 0 0 0 0 0 0 0 0 0 0 0 127 0" result="hardAlpha"/>
<feOffset dy="11"/>
<feGaussianBlur stdDeviation="11"/>
<feColorMatrix type="matrix" values="0 0 0 0 0.397708 0 0 0 0 0.47749 0 0 0 0 0.575 0 0 0 0.27 0"/>
<feBlend mode="normal" in2="BackgroundImageFix" result="effect1_dropShadow_8215_22978"/>
<feBlend mode="normal" in="SourceGraphic" in2="effect1_dropShadow_8215_22978" result="shape"/>
</filter>
<filter id="filter1_d_8215_22978" x="0.723473" y="33.0014" width="185.168" height="144.757" filterUnits="userSpaceOnUse" color-interpolation-filters="sRGB">
<feFlood flood-opacity="0" result="BackgroundImageFix"/>
<feColorMatrix in="SourceAlpha" type="matrix" values="0 0 0 0 0 0 0 0 0 0 0 0 0 0 0 0 0 0 127 0" result="hardAlpha"/>
<feOffset dy="19.8912"/>
<feGaussianBlur stdDeviation="19.8912"/>
<feColorMatrix type="matrix" values="0 0 0 0 0.397708 0 0 0 0 0.47749 0 0 0 0 0.575 0 0 0 0.27 0"/>
<feBlend mode="normal" in2="BackgroundImageFix" result="effect1_dropShadow_8215_22978"/>
<feBlend mode="normal" in="SourceGraphic" in2="effect1_dropShadow_8215_22978" result="shape"/>
</filter>
<filter id="filter2_d_8215_22978" x="4.40707" y="33.0014" width="185.168" height="144.757" filterUnits="userSpaceOnUse" color-interpolation-filters="sRGB">
<feFlood flood-opacity="0" result="BackgroundImageFix"/>
<feColorMatrix in="SourceAlpha" type="matrix" values="0 0 0 0 0 0 0 0 0 0 0 0 0 0 0 0 0 0 127 0" result="hardAlpha"/>
<feOffset dy="19.8912"/>
<feGaussianBlur stdDeviation="19.8912"/>
<feColorMatrix type="matrix" values="0 0 0 0 0.397708 0 0 0 0 0.47749 0 0 0 0 0.575 0 0 0 0.27 0"/>
<feBlend mode="normal" in2="BackgroundImageFix" result="effect1_dropShadow_8215_22978"/>
<feBlend mode="normal" in="SourceGraphic" in2="effect1_dropShadow_8215_22978" result="shape"/>
</filter>
<linearGradient id="paint0_linear_8215_22978" x1="134.821" y1="-15.1252" x2="76.6051" y2="151.292" gradientUnits="userSpaceOnUse">
<stop stop-color="#448CEE"/>
<stop offset="0.386754" stop-color="#B5D1F8"/>
<stop offset="1" stop-color="white" stop-opacity="0"/>
</linearGradient>
<linearGradient id="paint1_linear_8215_22978" x1="95.1051" y1="12.8377" x2="95.1051" y2="92.3286" gradientUnits="userSpaceOnUse">
<stop stop-color="#0038F9"/>
<stop offset="1" stop-color="#1986F0"/>
</linearGradient>
<linearGradient id="paint2_linear_8215_22978" x1="94.9341" y1="101.627" x2="94.9341" y2="55.1744" gradientUnits="userSpaceOnUse">
<stop stop-color="#5CC4FE"/>
<stop offset="1" stop-color="#5CC4FE" stop-opacity="0"/>
</linearGradient>
<linearGradient id="paint3_linear_8215_22978" x1="93.2725" y1="51.3846" x2="93.2725" y2="118.787" gradientUnits="userSpaceOnUse">
<stop stop-color="#FDFEFF"/>
<stop offset="0.9964" stop-color="#E0F2FE"/>
</linearGradient>
<linearGradient id="paint4_linear_8215_22978" x1="72.0087" y1="102.703" x2="67.7283" y2="96.4377" gradientUnits="userSpaceOnUse">
<stop stop-color="#D5D8E4"/>
<stop offset="1" stop-color="#E1E4F0" stop-opacity="0"/>
</linearGradient>
<linearGradient id="paint5_linear_8215_22978" x1="96.9561" y1="51.3846" x2="96.9561" y2="118.787" gradientUnits="userSpaceOnUse">
<stop stop-color="#FDFEFF"/>
<stop offset="0.9964" stop-color="#E0F2FE"/>
</linearGradient>
<linearGradient id="paint6_linear_8215_22978" x1="98.3348" y1="34.2999" x2="98.3348" y2="51.7533" gradientUnits="userSpaceOnUse">
<stop stop-color="#30E482"/>
<stop offset="1" stop-color="#15C164"/>
</linearGradient>
</defs>
</svg>
