<svg width="49" height="49" viewBox="0 0 49 49" fill="none" xmlns="http://www.w3.org/2000/svg">
<path fill-rule="evenodd" clip-rule="evenodd" d="M30.8766 33.1272H17.3852C14.9028 33.1272 12.8906 31.1151 12.8906 28.6326V19.6332C12.8906 17.1508 14.9028 15.1387 17.3852 15.1387H30.8817C33.3642 15.1387 35.3763 17.1508 35.3763 19.6332V28.6326C35.3737 31.1125 33.3616 33.1272 30.8766 33.1272V33.1272Z" stroke="white" stroke-width="2" stroke-linecap="round" stroke-linejoin="round"/>
<path d="M13.0703 18.4336L21.3733 24.3724C23.0128 25.5468 25.2177 25.5468 26.8598 24.3775L35.1911 18.4362" stroke="white" stroke-width="2" stroke-linecap="round" stroke-linejoin="round"/>
<g opacity="0.4">
<path d="M6.55469 9.12114C7.73936 7.73345 9.0885 6.49738 10.5687 5.42578" stroke="white" stroke-width="2" stroke-linecap="round" stroke-linejoin="round"/>
<path d="M36.9802 43.3555C33.3054 45.8173 28.888 47.2564 24.1313 47.2564C21.7876 47.2564 19.5288 46.9018 17.3984 46.2542" stroke="white" stroke-width="2" stroke-linecap="round" stroke-linejoin="round"/>
<path d="M9.60598 42.1171C6.31408 39.4573 3.7854 35.9059 2.34375 31.8379" stroke="white" stroke-width="2" stroke-linecap="round" stroke-linejoin="round"/>
<path d="M2.34752 16.418C1.49178 18.8336 1.00352 21.4188 1.00352 24.1273" stroke="white" stroke-width="2" stroke-linecap="round" stroke-linejoin="round"/>
<path d="M43.3112 36.9771C45.7884 33.2997 47.2609 28.8951 47.2609 24.1281C47.2609 11.3537 36.9072 1 24.1328 1" stroke="white" stroke-width="2" stroke-linecap="round" stroke-linejoin="round"/>
</g>
</svg>
