<svg width="255" height="223" viewBox="0 0 255 223" fill="none" xmlns="http://www.w3.org/2000/svg">
<path d="M127.247 191.135C177.879 191.135 218.927 150.087 218.927 99.2742C218.927 48.4613 177.698 7.41309 127.247 7.41309C76.6146 7.41309 35.5664 48.4613 35.5664 99.2742C35.5664 150.087 76.6146 191.135 127.247 191.135Z" fill="url(#paint0_linear_8215_22946)"/>
<path d="M223.809 10.1264C226.606 10.1264 228.873 7.85955 228.873 5.06321C228.873 2.26688 226.606 0 223.809 0C221.013 0 218.746 2.26688 218.746 5.06321C218.746 7.85955 221.013 10.1264 223.809 10.1264Z" fill="#BDE8FF"/>
<path d="M40.4499 38.8789C43.2463 38.8789 45.5131 36.612 45.5131 33.8157C45.5131 31.0193 43.2463 28.7524 40.4499 28.7524C37.6536 28.7524 35.3867 31.0193 35.3867 33.8157C35.3867 36.612 37.6536 38.8789 40.4499 38.8789Z" fill="#BDE8FF"/>
<path d="M9.52811 136.529C14.7213 136.529 18.9312 132.319 18.9312 127.126C18.9312 121.933 14.7213 117.723 9.52811 117.723C4.33491 117.723 0.125 121.933 0.125 127.126C0.125 132.319 4.33491 136.529 9.52811 136.529Z" fill="#BDE8FF"/>
<g filter="url(#filter0_d_8215_22946)">
<path d="M214.609 51.0213V157.417C214.609 160.539 212.007 163.14 208.886 163.14H47.2113C44.0896 163.27 41.4883 160.669 41.4883 157.547V51.0213C41.4883 47.7696 44.0896 45.2983 47.2113 45.2983H208.886C212.137 45.2983 214.609 47.8997 214.609 51.0213Z" fill="url(#paint1_linear_8215_22946)"/>
</g>
<path d="M214.609 51.0213V59.2156H41.4883V51.0213C41.4883 47.7696 44.0896 45.2983 47.2113 45.2983H208.886C212.137 45.2983 214.609 47.8997 214.609 51.0213Z" fill="#0038F9"/>
<path d="M104.18 100.448C106.838 100.448 108.992 98.2936 108.992 95.6358C108.992 92.9779 106.838 90.8232 104.18 90.8232C101.522 90.8232 99.3672 92.9779 99.3672 95.6358C99.3672 98.2936 101.522 100.448 104.18 100.448Z" fill="#1986F0"/>
<path d="M152.047 100.448C154.705 100.448 156.859 98.2936 156.859 95.6358C156.859 92.9779 154.705 90.8232 152.047 90.8232C149.389 90.8232 147.234 92.9779 147.234 95.6358C147.234 98.2936 149.389 100.448 152.047 100.448Z" fill="#1986F0"/>
<path d="M135.919 132.056H120.831C118.49 132.056 116.539 130.105 116.539 127.764C116.539 125.423 118.49 123.472 120.831 123.472H135.789C138.13 123.472 140.081 125.423 140.081 127.764C140.211 130.105 138.26 132.056 135.919 132.056Z" fill="#1986F0"/>
<path d="M49.162 54.6677C50.2395 54.6677 51.113 53.7942 51.113 52.7166C51.113 51.6391 50.2395 50.7656 49.162 50.7656C48.0844 50.7656 47.2109 51.6391 47.2109 52.7166C47.2109 53.7942 48.0844 54.6677 49.162 54.6677Z" fill="#F9FAFB"/>
<path d="M55.2752 54.6677C56.3528 54.6677 57.2263 53.7942 57.2263 52.7166C57.2263 51.6391 56.3528 50.7656 55.2752 50.7656C54.1977 50.7656 53.3242 51.6391 53.3242 52.7166C53.3242 53.7942 54.1977 54.6677 55.2752 54.6677Z" fill="#F9FAFB"/>
<path d="M61.5174 54.6677C62.5949 54.6677 63.4684 53.7942 63.4684 52.7166C63.4684 51.6391 62.5949 50.7656 61.5174 50.7656C60.4399 50.7656 59.5664 51.6391 59.5664 52.7166C59.5664 53.7942 60.4399 54.6677 61.5174 54.6677Z" fill="#F9FAFB"/>
<defs>
<filter id="filter0_d_8215_22946" x="1.70589" y="25.4071" width="252.686" height="197.411" filterUnits="userSpaceOnUse" color-interpolation-filters="sRGB">
<feFlood flood-opacity="0" result="BackgroundImageFix"/>
<feColorMatrix in="SourceAlpha" type="matrix" values="0 0 0 0 0 0 0 0 0 0 0 0 0 0 0 0 0 0 127 0" result="hardAlpha"/>
<feOffset dy="19.8912"/>
<feGaussianBlur stdDeviation="19.8912"/>
<feColorMatrix type="matrix" values="0 0 0 0 0.397708 0 0 0 0 0.47749 0 0 0 0 0.575 0 0 0 0.27 0"/>
<feBlend mode="normal" in2="BackgroundImageFix" result="effect1_dropShadow_8215_22946"/>
<feBlend mode="normal" in="SourceGraphic" in2="effect1_dropShadow_8215_22946" result="shape"/>
</filter>
<linearGradient id="paint0_linear_8215_22946" x1="188.606" y1="-29.3699" x2="97.3465" y2="229.24" gradientUnits="userSpaceOnUse">
<stop stop-color="#448CEE"/>
<stop offset="0.386754" stop-color="#B5D1F8"/>
<stop offset="1" stop-color="white"/>
</linearGradient>
<linearGradient id="paint1_linear_8215_22946" x1="127.992" y1="42.5724" x2="127.992" y2="164.415" gradientUnits="userSpaceOnUse">
<stop stop-color="#FDFEFF"/>
<stop offset="0.9964" stop-color="#E0F2FE"/>
</linearGradient>
</defs>
</svg>
